# xmcd
#
# Track frame offsets:
#       150
#       12030
#       25691
#       37499
#       49524
#       64658
#       74899
#       88108
#       99571
#       114248
#       127750
#       140199
#       151212
#       166219
#       179599
#       191884
#       205782
#       219257
#       232216
#       245048
#       257544
#       272546
#       285956
#
# Disc length: 3977 seconds
#
# Revision: 1
# Processed by: cddbd v1.4PL0 Copyright (c) Steve Scherf et al.
# Submitted via: CD-DA_X-Tractor v0.21
#
DISCID=4f0f8717
DTITLE=Dinah Washington - Blues For A Day (Jazz Referenc
DYEAR=1900
DGENRE=
TTITLE0=New Blow Top Blues
TTITLE1=It Isn't Fair
TTITLE2=Fine Fine Daddy
TTITLE3=Since I Fell For You
TTITLE4=Cold Cold Heart
TTITLE5=Fast Movin' Mama
TTITLE6=Blues For A Day
TTITLE7=Saturday Night
TTITLE8=Long John Blues
TTITLE9=Just One More Chance
TTITLE10=If You Don't Believe I'm Leavin'
TTITLE11=Shuckin' And Jivin'
TTITLE12=Record Ban Blues
TTITLE13=Richest Guy in the Graveyard
TTITLE14=I'm A Fool to Want You
TTITLE15=The Man I Love
TTITLE16=Embraceable One
TTITLE17=Wise Woman Blues
TTITLE18=I Can't Get Started
TTITLE19=A Slick Chick ( On the Mellow Side )
TTITLE20=Blow Top Blues
TTITLE21=Rich Man's Blues
TTITLE22=Juice Head Man of Mine
EXTD=
EXTT0=
EXTT1=
EXTT2=
EXTT3=
EXTT4=
EXTT5=
EXTT6=
EXTT7=
EXTT8=
EXTT9=
EXTT10=
EXTT11=
EXTT12=
EXTT13=
EXTT14=
EXTT15=
EXTT16=
EXTT17=
EXTT18=
EXTT19=
EXTT20=
EXTT21=
EXTT22=
PLAYORDER=
